<svg width="89" height="240" viewBox="0 0 89 240" fill="none" xmlns="http://www.w3.org/2000/svg">
<g clip-path="url(#clip0_62_7262)">
<circle cx="1" cy="2" r="2" fill="#B6B3FF"/>
<circle cx="11" cy="2" r="2" fill="#B6B3FF"/>
<circle cx="21" cy="2" r="2" fill="#B6B3FF"/>
<circle cx="31" cy="2" r="2" fill="#B6B3FF"/>
<circle cx="41" cy="2" r="2" fill="#B6B3FF"/>
<circle cx="51" cy="2" r="2" fill="#B6B3FF"/>
<circle cx="61" cy="2" r="2" fill="#B6B3FF"/>
<circle cx="71" cy="2" r="2" fill="#B6B3FF"/>
<circle cx="81" cy="2" r="2" fill="#B6B3FF"/>
<circle cx="1" cy="12" r="2" fill="#B6B3FF"/>
<circle cx="11" cy="12" r="2" fill="#B6B3FF"/>
<circle cx="21" cy="12" r="2" fill="#B6B3FF"/>
<circle cx="31" cy="12" r="2" fill="#B6B3FF"/>
<circle cx="41" cy="12" r="2" fill="#B6B3FF"/>
<circle cx="51" cy="12" r="2" fill="#B6B3FF"/>
<circle cx="61" cy="12" r="2" fill="#B6B3FF"/>
<circle cx="71" cy="12" r="2" fill="#B6B3FF"/>
<circle cx="81" cy="12" r="2" fill="#B6B3FF"/>
<circle cx="1" cy="22" r="2" fill="#B6B3FF"/>
<circle cx="11" cy="22" r="2" fill="#B6B3FF"/>
<circle cx="21" cy="22" r="2" fill="#B6B3FF"/>
<circle cx="31" cy="22" r="2" fill="#B6B3FF"/>
<circle cx="41" cy="22" r="2" fill="#B6B3FF"/>
<circle cx="51" cy="22" r="2" fill="#B6B3FF"/>
<circle cx="61" cy="22" r="2" fill="#B6B3FF"/>
<circle cx="71" cy="22" r="2" fill="#B6B3FF"/>
<circle cx="81" cy="22" r="2" fill="#B6B3FF"/>
<circle cx="1" cy="32" r="2" fill="#B6B3FF"/>
<circle cx="11" cy="32" r="2" fill="#B6B3FF"/>
<circle cx="21" cy="32" r="2" fill="#B6B3FF"/>
<circle cx="31" cy="32" r="2" fill="#B6B3FF"/>
<circle cx="41" cy="32" r="2" fill="#B6B3FF"/>
<circle cx="51" cy="32" r="2" fill="#B6B3FF"/>
<circle cx="61" cy="32" r="2" fill="#B6B3FF"/>
<circle cx="71" cy="32" r="2" fill="#B6B3FF"/>
<circle cx="81" cy="32" r="2" fill="#B6B3FF"/>
<circle cx="1" cy="42" r="2" fill="#B6B3FF"/>
<circle cx="11" cy="42" r="2" fill="#B6B3FF"/>
<circle cx="21" cy="42" r="2" fill="#B6B3FF"/>
<circle cx="31" cy="42" r="2" fill="#B6B3FF"/>
<circle cx="41" cy="42" r="2" fill="#B6B3FF"/>
<circle cx="51" cy="42" r="2" fill="#B6B3FF"/>
<circle cx="61" cy="42" r="2" fill="#B6B3FF"/>
<circle cx="71" cy="42" r="2" fill="#B6B3FF"/>
<circle cx="81" cy="42" r="2" fill="#B6B3FF"/>
<circle cx="1" cy="52" r="2" fill="#B6B3FF"/>
<circle cx="11" cy="52" r="2" fill="#B6B3FF"/>
<circle cx="21" cy="52" r="2" fill="#B6B3FF"/>
<circle cx="31" cy="52" r="2" fill="#B6B3FF"/>
<circle cx="41" cy="52" r="2" fill="#B6B3FF"/>
<circle cx="51" cy="52" r="2" fill="#B6B3FF"/>
<circle cx="61" cy="52" r="2" fill="#B6B3FF"/>
<circle cx="71" cy="52" r="2" fill="#B6B3FF"/>
<circle cx="81" cy="52" r="2" fill="#B6B3FF"/>
<circle cx="1" cy="62" r="2" fill="#B6B3FF"/>
<circle cx="11" cy="62" r="2" fill="#B6B3FF"/>
<circle cx="21" cy="62" r="2" fill="#B6B3FF"/>
<circle cx="31" cy="62" r="2" fill="#B6B3FF"/>
<circle cx="41" cy="62" r="2" fill="#B6B3FF"/>
<circle cx="51" cy="62" r="2" fill="#B6B3FF"/>
<circle cx="61" cy="62" r="2" fill="#B6B3FF"/>
<circle cx="71" cy="62" r="2" fill="#B6B3FF"/>
<circle cx="81" cy="62" r="2" fill="#B6B3FF"/>
<circle cx="1" cy="72" r="2" fill="#B6B3FF"/>
<circle cx="11" cy="72" r="2" fill="#B6B3FF"/>
<circle cx="21" cy="72" r="2" fill="#B6B3FF"/>
<circle cx="31" cy="72" r="2" fill="#B6B3FF"/>
<circle cx="41" cy="72" r="2" fill="#B6B3FF"/>
<circle cx="51" cy="72" r="2" fill="#B6B3FF"/>
<circle cx="61" cy="72" r="2" fill="#B6B3FF"/>
<circle cx="71" cy="72" r="2" fill="#B6B3FF"/>
<circle cx="81" cy="72" r="2" fill="#B6B3FF"/>
<circle cx="1" cy="82" r="2" fill="#B6B3FF"/>
<circle cx="11" cy="82" r="2" fill="#B6B3FF"/>
<circle cx="21" cy="82" r="2" fill="#B6B3FF"/>
<circle cx="31" cy="82" r="2" fill="#B6B3FF"/>
<circle cx="41" cy="82" r="2" fill="#B6B3FF"/>
<circle cx="51" cy="82" r="2" fill="#B6B3FF"/>
<circle cx="61" cy="82" r="2" fill="#B6B3FF"/>
<circle cx="71" cy="82" r="2" fill="#B6B3FF"/>
<circle cx="81" cy="82" r="2" fill="#B6B3FF"/>
<circle cx="1" cy="92" r="2" fill="#B6B3FF"/>
<circle cx="11" cy="92" r="2" fill="#B6B3FF"/>
<circle cx="21" cy="92" r="2" fill="#B6B3FF"/>
<circle cx="31" cy="92" r="2" fill="#B6B3FF"/>
<circle cx="41" cy="92" r="2" fill="#B6B3FF"/>
<circle cx="51" cy="92" r="2" fill="#B6B3FF"/>
<circle cx="61" cy="92" r="2" fill="#B6B3FF"/>
<circle cx="71" cy="92" r="2" fill="#B6B3FF"/>
<circle cx="81" cy="92" r="2" fill="#B6B3FF"/>
<circle cx="1" cy="102" r="2" fill="#B6B3FF"/>
<circle cx="11" cy="102" r="2" fill="#B6B3FF"/>
<circle cx="21" cy="102" r="2" fill="#B6B3FF"/>
<circle cx="31" cy="102" r="2" fill="#B6B3FF"/>
<circle cx="41" cy="102" r="2" fill="#B6B3FF"/>
<circle cx="51" cy="102" r="2" fill="#B6B3FF"/>
<circle cx="61" cy="102" r="2" fill="#B6B3FF"/>
<circle cx="71" cy="102" r="2" fill="#B6B3FF"/>
<circle cx="81" cy="102" r="2" fill="#B6B3FF"/>
<circle cx="1" cy="112" r="2" fill="#B6B3FF"/>
<circle cx="11" cy="112" r="2" fill="#B6B3FF"/>
<circle cx="21" cy="112" r="2" fill="#B6B3FF"/>
<circle cx="31" cy="112" r="2" fill="#B6B3FF"/>
<circle cx="41" cy="112" r="2" fill="#B6B3FF"/>
<circle cx="51" cy="112" r="2" fill="#B6B3FF"/>
<circle cx="61" cy="112" r="2" fill="#B6B3FF"/>
<circle cx="71" cy="112" r="2" fill="#B6B3FF"/>
<circle cx="81" cy="112" r="2" fill="#B6B3FF"/>
<circle cx="1" cy="122" r="2" fill="#B6B3FF"/>
<circle cx="11" cy="122" r="2" fill="#B6B3FF"/>
<circle cx="21" cy="122" r="2" fill="#B6B3FF"/>
<circle cx="31" cy="122" r="2" fill="#B6B3FF"/>
<circle cx="41" cy="122" r="2" fill="#B6B3FF"/>
<circle cx="51" cy="122" r="2" fill="#B6B3FF"/>
<circle cx="61" cy="122" r="2" fill="#B6B3FF"/>
<circle cx="71" cy="122" r="2" fill="#B6B3FF"/>
<circle cx="81" cy="122" r="2" fill="#B6B3FF"/>
<circle cx="1" cy="132" r="2" fill="#B6B3FF"/>
<circle cx="11" cy="132" r="2" fill="#B6B3FF"/>
<circle cx="21" cy="132" r="2" fill="#B6B3FF"/>
<circle cx="31" cy="132" r="2" fill="#B6B3FF"/>
<circle cx="41" cy="132" r="2" fill="#B6B3FF"/>
<circle cx="51" cy="132" r="2" fill="#B6B3FF"/>
<circle cx="61" cy="132" r="2" fill="#B6B3FF"/>
<circle cx="71" cy="132" r="2" fill="#B6B3FF"/>
<circle cx="81" cy="132" r="2" fill="#B6B3FF"/>
<circle cx="1" cy="142" r="2" fill="#B6B3FF"/>
<circle cx="11" cy="142" r="2" fill="#B6B3FF"/>
<circle cx="21" cy="142" r="2" fill="#B6B3FF"/>
<circle cx="31" cy="142" r="2" fill="#B6B3FF"/>
<circle cx="41" cy="142" r="2" fill="#B6B3FF"/>
<circle cx="51" cy="142" r="2" fill="#B6B3FF"/>
<circle cx="61" cy="142" r="2" fill="#B6B3FF"/>
<circle cx="71" cy="142" r="2" fill="#B6B3FF"/>
<circle cx="81" cy="142" r="2" fill="#B6B3FF"/>
<circle cx="1" cy="152" r="2" fill="#B6B3FF"/>
<circle cx="11" cy="152" r="2" fill="#B6B3FF"/>
<circle cx="21" cy="152" r="2" fill="#B6B3FF"/>
<circle cx="31" cy="152" r="2" fill="#B6B3FF"/>
<circle cx="41" cy="152" r="2" fill="#B6B3FF"/>
<circle cx="51" cy="152" r="2" fill="#B6B3FF"/>
<circle cx="61" cy="152" r="2" fill="#B6B3FF"/>
<circle cx="71" cy="152" r="2" fill="#B6B3FF"/>
<circle cx="81" cy="152" r="2" fill="#B6B3FF"/>
<circle cx="1" cy="162" r="2" fill="#B6B3FF"/>
<circle cx="11" cy="162" r="2" fill="#B6B3FF"/>
<circle cx="21" cy="162" r="2" fill="#B6B3FF"/>
<circle cx="31" cy="162" r="2" fill="#B6B3FF"/>
<circle cx="41" cy="162" r="2" fill="#B6B3FF"/>
<circle cx="51" cy="162" r="2" fill="#B6B3FF"/>
<circle cx="61" cy="162" r="2" fill="#B6B3FF"/>
<circle cx="71" cy="162" r="2" fill="#B6B3FF"/>
<circle cx="81" cy="162" r="2" fill="#B6B3FF"/>
<circle cx="1" cy="172" r="2" fill="#B6B3FF"/>
<circle cx="11" cy="172" r="2" fill="#B6B3FF"/>
<circle cx="21" cy="172" r="2" fill="#B6B3FF"/>
<circle cx="31" cy="172" r="2" fill="#B6B3FF"/>
<circle cx="41" cy="172" r="2" fill="#B6B3FF"/>
<circle cx="51" cy="172" r="2" fill="#B6B3FF"/>
<circle cx="61" cy="172" r="2" fill="#B6B3FF"/>
<circle cx="71" cy="172" r="2" fill="#B6B3FF"/>
<circle cx="81" cy="172" r="2" fill="#B6B3FF"/>
<circle cx="1" cy="182" r="2" fill="#B6B3FF"/>
<circle cx="11" cy="182" r="2" fill="#B6B3FF"/>
<circle cx="21" cy="182" r="2" fill="#B6B3FF"/>
<circle cx="31" cy="182" r="2" fill="#B6B3FF"/>
<circle cx="41" cy="182" r="2" fill="#B6B3FF"/>
<circle cx="51" cy="182" r="2" fill="#B6B3FF"/>
<circle cx="61" cy="182" r="2" fill="#B6B3FF"/>
<circle cx="71" cy="182" r="2" fill="#B6B3FF"/>
<circle cx="81" cy="182" r="2" fill="#B6B3FF"/>
<circle cx="1" cy="192" r="2" fill="#B6B3FF"/>
<circle cx="11" cy="192" r="2" fill="#B6B3FF"/>
<circle cx="21" cy="192" r="2" fill="#B6B3FF"/>
<circle cx="31" cy="192" r="2" fill="#B6B3FF"/>
<circle cx="41" cy="192" r="2" fill="#B6B3FF"/>
<circle cx="51" cy="192" r="2" fill="#B6B3FF"/>
<circle cx="61" cy="192" r="2" fill="#B6B3FF"/>
<circle cx="71" cy="192" r="2" fill="#B6B3FF"/>
<circle cx="81" cy="192" r="2" fill="#B6B3FF"/>
<circle cx="1" cy="202" r="2" fill="#B6B3FF"/>
<circle cx="11" cy="202" r="2" fill="#B6B3FF"/>
<circle cx="21" cy="202" r="2" fill="#B6B3FF"/>
<circle cx="31" cy="202" r="2" fill="#B6B3FF"/>
<circle cx="41" cy="202" r="2" fill="#B6B3FF"/>
<circle cx="51" cy="202" r="2" fill="#B6B3FF"/>
<circle cx="61" cy="202" r="2" fill="#B6B3FF"/>
<circle cx="71" cy="202" r="2" fill="#B6B3FF"/>
<circle cx="81" cy="202" r="2" fill="#B6B3FF"/>
<circle cx="1" cy="212" r="2" fill="#B6B3FF"/>
<circle cx="11" cy="212" r="2" fill="#B6B3FF"/>
<circle cx="21" cy="212" r="2" fill="#B6B3FF"/>
<circle cx="31" cy="212" r="2" fill="#B6B3FF"/>
<circle cx="41" cy="212" r="2" fill="#B6B3FF"/>
<circle cx="51" cy="212" r="2" fill="#B6B3FF"/>
<circle cx="61" cy="212" r="2" fill="#B6B3FF"/>
<circle cx="71" cy="212" r="2" fill="#B6B3FF"/>
<circle cx="81" cy="212" r="2" fill="#B6B3FF"/>
<circle cx="1" cy="222" r="2" fill="#B6B3FF"/>
<circle cx="11" cy="222" r="2" fill="#B6B3FF"/>
<circle cx="21" cy="222" r="2" fill="#B6B3FF"/>
<circle cx="31" cy="222" r="2" fill="#B6B3FF"/>
<circle cx="41" cy="222" r="2" fill="#B6B3FF"/>
<circle cx="51" cy="222" r="2" fill="#B6B3FF"/>
<circle cx="61" cy="222" r="2" fill="#B6B3FF"/>
<circle cx="71" cy="222" r="2" fill="#B6B3FF"/>
<circle cx="81" cy="222" r="2" fill="#B6B3FF"/>
<circle cx="1" cy="232" r="2" fill="#B6B3FF"/>
<circle cx="11" cy="232" r="2" fill="#B6B3FF"/>
<circle cx="21" cy="232" r="2" fill="#B6B3FF"/>
<circle cx="31" cy="232" r="2" fill="#B6B3FF"/>
<circle cx="41" cy="232" r="2" fill="#B6B3FF"/>
<circle cx="51" cy="232" r="2" fill="#B6B3FF"/>
<circle cx="61" cy="232" r="2" fill="#B6B3FF"/>
<circle cx="71" cy="232" r="2" fill="#B6B3FF"/>
<circle cx="81" cy="232" r="2" fill="#B6B3FF"/>
</g>
<defs>
<clipPath id="clip0_62_7262">
<rect width="200" height="240" fill="white" transform="translate(-111)"/>
</clipPath>
</defs>
</svg>
