<svg width="342" height="291" viewBox="0 0 342 291" fill="none" xmlns="http://www.w3.org/2000/svg">
<path d="M209.541 232.029C181.108 244.206 150.436 250.281 119.507 249.864C117.67 249.849 115.878 249.301 114.347 248.285C112.817 247.269 111.615 245.83 110.888 244.144L80.0709 173.467C79.0639 171.15 79.0169 168.529 79.9403 166.177C80.8637 163.826 82.682 161.938 84.9963 160.925L242.195 92.3832C244.511 91.3762 247.132 91.3293 249.484 92.2526C251.835 93.176 253.723 94.9943 254.736 97.3085L285.553 167.986C286.294 169.666 286.53 171.526 286.233 173.339C285.936 175.151 285.118 176.838 283.879 178.194C263.137 201.141 237.813 219.481 209.541 232.029Z" fill="#777EFF"/>
<path d="M184.554 174.782C183.389 175.291 182.134 175.562 180.863 175.579L33.2754 177.34C31.3722 177.362 29.5058 176.814 27.9168 175.767C26.3278 174.719 25.0892 173.219 24.3605 171.461C23.6319 169.702 23.4467 167.766 23.8288 165.901C24.2109 164.037 25.1427 162.329 26.5042 160.999L130.542 59.3545C132.216 57.7138 134.438 56.7506 136.78 56.6503L280.387 50.3157C282.281 50.2322 284.157 50.7157 285.775 51.7044C287.393 52.693 288.679 54.1418 289.468 55.8653C290.258 57.5889 290.516 59.5088 290.208 61.3796C289.901 63.2503 289.042 64.9869 287.742 66.3669L187.684 172.585C186.8 173.521 185.735 174.268 184.554 174.782Z" fill="#777EFF"/>
<path d="M131.013 250.571C137.444 247.767 140.384 240.28 137.58 233.849C134.776 227.418 127.289 224.478 120.858 227.282C114.427 230.086 111.487 237.573 114.291 244.004C117.095 250.435 124.582 253.375 131.013 250.571Z" fill="#474554"/>
<path opacity="0.2" d="M284.912 58.7164L184.854 164.935C184.074 165.763 183.135 166.425 182.093 166.882C181.052 167.339 179.928 167.582 178.791 167.596L31.2037 169.358C29.3571 169.395 27.5505 168.817 26.0694 167.713C25.9353 168.906 26.0565 170.114 26.4249 171.256C26.7934 172.399 27.4006 173.45 28.2064 174.339C29.0121 175.229 29.9978 175.937 31.0982 176.417C32.1986 176.896 33.3883 177.136 34.5885 177.12L182.176 175.359C183.313 175.345 184.436 175.102 185.478 174.645C186.52 174.188 187.459 173.525 188.239 172.697L288.297 66.4792C289.118 65.6089 289.746 64.5742 290.138 63.4435C290.53 62.3128 290.678 61.1119 290.571 59.9199C290.465 58.7278 290.107 57.5719 289.521 56.5283C288.936 55.4848 288.135 54.5774 287.173 53.866C286.974 55.6877 286.18 57.3929 284.912 58.7164Z" fill="white"/>
<path d="M126.894 238.454C127.409 238.23 127.814 237.81 128.019 237.288C128.224 236.765 128.213 236.182 127.989 235.668L99.6738 170.728L153.514 119.502C154.032 119.285 154.443 118.871 154.656 118.352C154.869 117.832 154.867 117.249 154.65 116.731C154.433 116.213 154.019 115.802 153.5 115.589C152.98 115.376 152.397 115.378 151.879 115.595L98.0392 166.822C97.519 167.034 97.0473 167.351 96.6528 167.751C96.2583 168.151 95.9492 168.628 95.7442 169.151C95.5334 169.672 95.429 170.229 95.4373 170.791C95.4456 171.352 95.5663 171.907 95.7924 172.421L124.107 237.36C124.332 237.875 124.752 238.279 125.274 238.484C125.797 238.69 126.38 238.679 126.894 238.454Z" fill="#474554"/>
</svg>
