<svg width="329" height="293" viewBox="0 0 329 293" fill="none" xmlns="http://www.w3.org/2000/svg">
<path d="M322.139 198.165L250.487 286.49L29.0323 107.107C3.80047 86.6683 -0.656189 50.2275 19.0979 25.8767C38.8521 1.52595 75.4529 -1.65723 100.685 18.7811L322.139 198.165Z" fill="#F2F2F2"/>
<path d="M256.477 290.217C255.746 291.117 254.687 291.691 253.533 291.812C252.379 291.932 251.224 291.59 250.322 290.86L22.8831 106.629C10.5305 96.6233 2.66155 82.1238 1.00742 66.3204C-0.64671 50.5171 4.04949 34.7045 14.0628 22.3611C24.0762 10.0177 38.5864 2.15471 54.4016 0.501881C70.2167 -1.15094 86.0412 3.5418 98.3938 13.5477L325.833 197.779C326.279 198.14 326.651 198.586 326.925 199.091C327.199 199.596 327.371 200.15 327.431 200.721C327.491 201.293 327.438 201.87 327.274 202.421C327.111 202.972 326.84 203.485 326.478 203.931C326.116 204.377 325.67 204.748 325.164 205.022C324.659 205.296 324.104 205.467 323.533 205.527C322.961 205.586 322.383 205.533 321.832 205.369C321.281 205.205 320.767 204.935 320.321 204.573L92.8821 20.342C87.6589 16.1077 81.6521 12.9432 75.2048 11.0292C68.7574 9.11516 61.9959 8.48915 55.3064 9.18693C48.6169 9.88471 42.1306 11.8926 36.2178 15.0959C30.3051 18.2992 25.0819 22.6352 20.8465 27.8561C16.6112 33.0769 13.4466 39.0805 11.5338 45.5238C9.62089 51.967 8.99712 58.7238 9.69809 65.408C10.3991 72.0922 12.411 78.573 15.6191 84.4801C18.8271 90.3871 23.1683 95.6048 28.3948 99.835L255.834 284.066C256.735 284.796 257.309 285.855 257.43 287.008C257.55 288.161 257.208 289.316 256.477 290.217Z" fill="#CCCCCC"/>
<path d="M305.604 218.547L67.6264 25.7797C67.5371 25.7074 67.4629 25.6181 67.4081 25.5172C67.3533 25.4162 67.3189 25.3055 67.307 25.1912C67.295 25.077 67.3057 24.9615 67.3384 24.8514C67.3711 24.7413 67.4252 24.6387 67.4976 24.5495C67.5699 24.4603 67.6592 24.3862 67.7602 24.3314C67.8613 24.2767 67.9721 24.2423 68.0865 24.2304C68.2008 24.2184 68.3163 24.2291 68.4265 24.2618C68.5367 24.2944 68.6394 24.3485 68.7287 24.4208L306.706 217.189C306.796 217.261 306.87 217.35 306.925 217.451C306.98 217.552 307.015 217.663 307.027 217.777C307.039 217.891 307.028 218.007 306.995 218.117C306.963 218.227 306.908 218.33 306.836 218.419C306.764 218.509 306.674 218.583 306.573 218.638C306.472 218.692 306.361 218.727 306.247 218.739C306.132 218.751 306.017 218.74 305.906 218.707C305.796 218.674 305.693 218.62 305.604 218.547L305.604 218.547Z" fill="#CCCCCC"/>
<path d="M292.376 234.854L54.3982 42.0859C54.2182 41.9397 54.1036 41.7281 54.0796 41.4976C54.0556 41.2671 54.1243 41.0365 54.2703 40.8564C54.4164 40.6764 54.628 40.5616 54.8586 40.5374C55.0893 40.5131 55.3202 40.5814 55.5005 40.7271L293.478 233.495C293.568 233.567 293.642 233.656 293.697 233.757C293.752 233.858 293.786 233.969 293.798 234.083C293.81 234.198 293.8 234.313 293.767 234.423C293.735 234.534 293.68 234.636 293.608 234.726C293.535 234.815 293.446 234.889 293.345 234.944C293.244 234.999 293.133 235.033 293.019 235.045C292.904 235.057 292.788 235.046 292.678 235.013C292.568 234.98 292.465 234.926 292.376 234.854Z" fill="#CCCCCC"/>
<path d="M279.148 251.16L41.1701 58.3922C40.9897 58.2461 40.8748 58.0344 40.8507 57.8037C40.8265 57.573 40.8951 57.3422 41.0413 57.162C41.1874 56.9818 41.3993 56.867 41.6302 56.8429C41.8611 56.8187 42.0921 56.8872 42.2724 57.0333L280.25 249.801C280.339 249.873 280.414 249.963 280.468 250.064C280.523 250.165 280.558 250.275 280.569 250.389C280.581 250.504 280.571 250.619 280.538 250.729C280.505 250.839 280.451 250.942 280.379 251.031C280.307 251.12 280.217 251.195 280.116 251.249C280.015 251.304 279.904 251.338 279.79 251.35C279.676 251.362 279.56 251.352 279.45 251.319C279.34 251.286 279.237 251.232 279.148 251.16L279.148 251.16Z" fill="#CCCCCC"/>
<path d="M265.92 267.466L27.9419 74.6985C27.8526 74.6261 27.7784 74.5369 27.7236 74.436C27.6689 74.335 27.6345 74.2243 27.6225 74.11C27.6106 73.9958 27.6213 73.8803 27.654 73.7702C27.6867 73.6601 27.7408 73.5575 27.8132 73.4683C27.8855 73.3791 27.9748 73.305 28.0758 73.2502C28.1769 73.1955 28.2877 73.1611 28.402 73.1492C28.5163 73.1372 28.6319 73.1479 28.7421 73.1806C28.8523 73.2132 28.9549 73.2673 29.0442 73.3396L267.022 266.107C267.111 266.18 267.186 266.269 267.241 266.37C267.296 266.471 267.33 266.582 267.342 266.696C267.354 266.81 267.344 266.926 267.311 267.036C267.278 267.146 267.224 267.249 267.152 267.338C267.079 267.427 266.99 267.502 266.889 267.556C266.788 267.611 266.677 267.645 266.562 267.657C266.448 267.669 266.332 267.658 266.222 267.626C266.112 267.593 266.009 267.539 265.92 267.466Z" fill="#CCCCCC"/>
</svg>
