<svg width="401" height="396" viewBox="0 0 401 396" fill="none" xmlns="http://www.w3.org/2000/svg">
<path d="M342.832 143.669L342.937 247.858L81.9048 248.122C52.1636 248.152 27.9423 224.807 27.9133 196.082C27.8842 167.358 52.0582 143.963 81.7994 143.933L342.832 143.669Z" fill="#F2F2F2"/>
<path d="M349.348 247.05C349.349 248.113 348.928 249.132 348.177 249.885C347.426 250.637 346.408 251.06 345.345 251.062L77.2586 251.333C62.6984 251.347 48.7285 245.578 38.4224 235.292C28.1164 225.007 22.3182 211.049 22.3035 196.489C22.2888 181.928 28.0587 167.959 38.3439 157.653C48.6292 147.346 62.5873 141.548 77.1476 141.534L345.234 141.262C345.76 141.262 346.282 141.365 346.769 141.565C347.255 141.766 347.698 142.061 348.07 142.432C348.443 142.804 348.739 143.246 348.941 143.732C349.143 144.218 349.247 144.739 349.248 145.266C349.248 145.792 349.145 146.313 348.944 146.8C348.743 147.287 348.448 147.729 348.076 148.101C347.704 148.474 347.262 148.769 346.776 148.971C346.29 149.173 345.769 149.277 345.242 149.277L77.1557 149.548C70.9971 149.552 64.8996 150.769 59.2115 153.13C53.5234 155.491 48.3561 158.949 44.0049 163.307C39.6536 167.666 36.2037 172.839 33.8521 178.531C31.5005 184.223 30.2934 190.322 30.2996 196.481C30.3058 202.639 31.5253 208.736 33.8884 214.423C36.2515 220.111 39.7119 225.276 44.072 229.626C48.432 233.976 53.6062 237.423 59.2991 239.773C64.992 242.122 71.0919 243.327 77.2505 243.318L345.337 243.047C346.4 243.046 347.419 243.468 348.171 244.218C348.923 244.969 349.347 245.988 349.348 247.05Z" fill="#777EFF"/>
<path d="M342.856 167.713L62.3474 167.997C62.2422 167.997 62.1379 167.976 62.0406 167.936C61.9434 167.896 61.8549 167.837 61.7804 167.762C61.7059 167.688 61.6468 167.6 61.6065 167.503C61.5661 167.405 61.5452 167.301 61.5451 167.196C61.545 167.091 61.5656 166.986 61.6058 166.889C61.646 166.792 61.705 166.703 61.7793 166.629C61.8537 166.554 61.9419 166.495 62.0391 166.455C62.1363 166.415 62.2405 166.394 62.3458 166.394L342.855 166.11C342.96 166.11 343.064 166.13 343.162 166.17C343.259 166.21 343.348 166.269 343.422 166.344C343.497 166.418 343.556 166.506 343.597 166.604C343.637 166.701 343.658 166.805 343.658 166.911C343.658 167.016 343.638 167.12 343.597 167.218C343.557 167.315 343.498 167.403 343.424 167.478C343.349 167.552 343.261 167.612 343.163 167.652C343.066 167.692 342.962 167.713 342.856 167.713L342.856 167.713Z" fill="#CCCCCC"/>
<path d="M342.876 186.948L62.3669 187.231C62.1545 187.231 61.9508 187.147 61.8006 186.997C61.6504 186.847 61.5659 186.643 61.5657 186.431C61.5655 186.218 61.6495 186.015 61.7995 185.864C61.9494 185.714 62.1529 185.629 62.3653 185.629L342.874 185.345C342.98 185.345 343.084 185.365 343.181 185.405C343.279 185.445 343.367 185.504 343.442 185.579C343.516 185.653 343.576 185.741 343.616 185.839C343.657 185.936 343.677 186.04 343.678 186.146C343.678 186.251 343.657 186.355 343.617 186.452C343.577 186.55 343.517 186.638 343.443 186.713C343.369 186.787 343.28 186.846 343.183 186.887C343.086 186.927 342.981 186.948 342.876 186.948Z" fill="#CCCCCC"/>
<path d="M342.895 206.183L62.3863 206.466C62.1738 206.467 61.9698 206.382 61.8193 206.232C61.6689 206.082 61.5842 205.878 61.584 205.666C61.5838 205.453 61.6681 205.249 61.8182 205.099C61.9684 204.948 62.1721 204.864 62.3847 204.863L342.894 204.58C342.999 204.58 343.103 204.6 343.2 204.64C343.298 204.681 343.386 204.74 343.461 204.814C343.535 204.888 343.594 204.977 343.635 205.074C343.675 205.171 343.696 205.275 343.696 205.38C343.696 205.486 343.675 205.59 343.635 205.687C343.595 205.784 343.536 205.873 343.462 205.947C343.387 206.022 343.299 206.081 343.202 206.121C343.105 206.162 343.001 206.183 342.895 206.183L342.895 206.183Z" fill="#CCCCCC"/>
<path d="M342.915 225.418L62.4058 225.701C62.3006 225.701 62.1963 225.681 62.099 225.641C62.0018 225.6 61.9133 225.541 61.8388 225.467C61.7644 225.393 61.7053 225.304 61.6649 225.207C61.6245 225.11 61.6037 225.006 61.6036 224.901C61.6035 224.795 61.6241 224.691 61.6643 224.594C61.7045 224.497 61.7634 224.408 61.8377 224.334C61.9121 224.259 62.0003 224.2 62.0975 224.16C62.1947 224.119 62.2989 224.098 62.4042 224.098L342.913 223.815C343.018 223.814 343.123 223.835 343.22 223.875C343.318 223.915 343.406 223.974 343.481 224.048C343.555 224.123 343.615 224.211 343.655 224.308C343.695 224.406 343.716 224.51 343.716 224.615C343.717 224.721 343.696 224.825 343.656 224.922C343.615 225.02 343.556 225.108 343.482 225.183C343.407 225.257 343.319 225.316 343.222 225.357C343.124 225.397 343.02 225.418 342.915 225.418Z" fill="#CCCCCC"/>
</svg>
