<svg width="94" height="183" viewBox="0 0 94 183" fill="none" xmlns="http://www.w3.org/2000/svg">
<path d="M74.3609 93.2756C70.2379 90.4934 70.6412 84.4058 75.0013 82.0131C75.09 81.9644 75.177 81.914 75.2623 81.862C75.4808 80.8145 75.6993 79.7669 75.9179 78.7194C77.2041 80.0567 79.7333 79.8043 80.7305 78.2391C77.2535 70.815 72.6814 63.9563 67.1674 57.8928C65.9654 56.5646 65.291 54.8417 65.2716 53.0496C65.2522 51.2575 65.8892 49.5204 67.0621 48.1663C67.0832 48.1418 67.1041 48.117 67.1248 48.092C70.2385 47.0393 73.1869 45.549 75.8816 43.6656C66.6406 28.8034 49.0193 16.9963 44.8309 0C32.2303 13.5452 30.8158 18.3157 18.2153 31.8609C18.2153 31.8609 6.28399 42.6381 3.70871 48.4299C4.34148 49.0952 10.0065 50.6919 10.2243 52C14.5445 52.3467 22.0292 47.6066 22.0292 47.6066C22.0292 47.6066 5.69268 65.0407 0.732722 75.7793C0.286078 76.7464 -0.138127 77.8506 0.23605 78.8479C0.534779 79.6442 1.60647 80.1033 2.29667 79.7869C1.47216 80.583 0.810147 81.5319 0.347472 82.5809C1.78677 83.5009 3.49394 83.9081 5.19305 83.7368C6.89216 83.5655 8.48392 82.8257 9.71104 81.6369C9.02019 82.9289 8.32935 84.2209 7.6385 85.5129L7.63973 85.5159C8.57305 85.8212 9.41065 86.365 10.0698 87.0935C10.7289 87.822 11.1867 88.7101 11.398 89.6699C11.6093 90.6298 11.5668 91.6282 11.2746 92.5666C10.9824 93.505 10.4507 94.3508 9.73199 95.0205C5.44492 99.0117 1.52766 103.207 0.0922877 105.97C-1.25803 108.569 12.6067 111.702 15.7253 111.573C18.8438 111.445 21.7587 110.073 24.5753 108.727C24.4381 110.012 24.6837 111.31 25.2814 112.456C26.8239 112.831 28.4256 112.893 29.9925 112.64C31.5595 112.386 33.06 111.822 34.4059 110.98C34.2817 113.551 37.5216 114.97 39.7704 114.242C38.6477 132.021 39.4689 156.986 40.5475 182.903H43.2236V115.267C43.9356 115.628 44.6973 115.882 45.4837 116.019C50.9588 116.992 57.5657 117.584 61.1283 113.31C65.2287 117.449 72.7428 117.37 76.8195 113.246C76.4183 113.957 77.0324 115.155 77.9408 115.343C79.0114 115.566 80.0529 114.929 80.9618 114.321C85.0764 111.567 89.1911 108.813 93.3057 106.06C88.2281 102.633 81.0151 97.766 74.3609 93.2756Z" fill="#B6B3FF"/>
</svg>
