<svg width="118" height="317" viewBox="0 0 118 317" fill="none" xmlns="http://www.w3.org/2000/svg">
<path d="M94.0412 161.662C88.8271 156.84 89.3371 146.289 94.8512 142.142C94.9634 142.057 95.0734 141.97 95.1812 141.88C95.4576 140.064 95.7339 138.249 96.0103 136.433C97.6369 138.751 100.836 138.314 102.097 135.601C97.6995 122.734 91.9173 110.846 84.9439 100.338C83.4238 98.0355 82.571 95.0494 82.5464 91.9434C82.5219 88.8375 83.3274 85.8267 84.8108 83.48C84.8374 83.4374 84.8639 83.3944 84.8901 83.3511C88.8278 81.5267 92.5566 78.9437 95.9644 75.6795C84.2777 49.9209 61.9927 29.4573 56.6958 -6.10352e-05C40.7604 23.4759 38.9716 31.744 23.0361 55.22C23.0361 55.22 7.94711 73.8986 4.69026 83.9368C5.49049 85.0899 12.6548 87.8571 12.9302 90.1244C18.3939 90.7253 27.8594 82.5098 27.8594 82.5098C27.8594 82.5098 7.1993 112.726 0.926644 131.338C0.361791 133.014 -0.174684 134.928 0.298522 136.656C0.676314 138.036 2.03163 138.832 2.90451 138.284C1.86179 139.663 1.02456 141.308 0.439434 143.126C2.25965 144.72 4.41865 145.426 6.56745 145.129C8.71624 144.833 10.7293 143.55 12.2812 141.49C11.4075 143.729 10.5338 145.968 9.6601 148.208L9.66166 148.213C10.842 148.742 11.9013 149.684 12.7348 150.947C13.5684 152.21 14.1474 153.749 14.4146 155.412C14.6818 157.076 14.628 158.806 14.2585 160.433C13.889 162.059 13.2166 163.525 12.3077 164.686C6.88597 171.603 1.93197 178.874 0.116713 183.662C-1.59099 188.167 15.9432 193.597 19.8871 193.374C23.831 193.152 27.5174 190.774 31.0794 188.441C30.9058 190.669 31.2165 192.918 31.9723 194.905C33.9231 195.554 35.9487 195.662 37.9304 195.223C39.912 194.783 41.8096 193.805 43.5118 192.345C43.3546 196.801 47.452 199.262 50.296 198C48.8762 228.813 49.9148 272.082 51.2788 317H54.6631V199.777C55.5636 200.403 56.5269 200.842 57.5215 201.08C64.4455 202.766 72.801 203.791 77.3065 196.384C82.4922 203.557 91.995 203.421 97.1506 196.273C96.6432 197.506 97.4198 199.582 98.5686 199.909C99.9225 200.294 101.24 199.19 102.389 198.136C107.593 193.364 112.796 188.591 118 183.819C111.579 177.88 102.457 169.444 94.0412 161.662Z" fill="#D6CEFF" fill-opacity="0.2"/>
</svg>
