<svg width="63" height="111" viewBox="0 0 63 111" fill="none" xmlns="http://www.w3.org/2000/svg">
<path d="M1.7649 92.7297C2.28958 92.754 2.809 92.6154 3.25277 92.3328C3.69655 92.0501 4.04327 91.6371 4.24589 91.1496C4.44851 90.6621 4.49726 90.1238 4.38557 89.6075C4.27387 89.0912 4.00712 88.6219 3.62144 88.2632C3.55685 88.005 3.51049 87.8195 3.44589 87.5612C3.46901 87.505 3.49226 87.4489 3.51565 87.3927C4.04422 86.1368 4.92994 85.0659 6.06154 84.3147C7.19315 83.5635 8.52017 83.1655 9.87593 83.1705C11.2317 83.1756 12.5557 83.5835 13.6818 84.3432C14.8078 85.1028 15.6855 86.1803 16.2048 87.4401C18.2802 92.4686 20.9226 97.5056 21.5732 102.822C21.8597 105.172 21.7389 107.555 21.2159 109.863C26.0905 99.1664 28.6216 87.5403 28.6379 75.7731C28.6389 72.8203 28.4759 69.8697 28.1494 66.9352C27.8797 64.5295 27.5054 62.1409 27.0266 59.7695C24.414 46.9023 18.8046 34.8421 10.659 24.5792C6.71658 22.4153 3.52828 19.0876 1.52375 15.0446C0.79756 13.5913 0.284336 12.0398 0 10.4386C0.444712 10.4972 0.896728 10.5339 1.34145 10.5632C1.47999 10.5705 1.62579 10.5779 1.76434 10.5853L1.81656 10.5876C2.30534 10.6097 2.79005 10.4891 3.21232 10.2405C3.63458 9.99189 3.9764 9.6258 4.19665 9.18629C4.41689 8.74679 4.50618 8.25261 4.45372 7.76325C4.40126 7.27389 4.2093 6.81022 3.90098 6.42805C3.70895 6.19032 3.51683 5.95273 3.3246 5.71525C3.03294 5.34851 2.73406 4.98911 2.44244 4.62242C2.40878 4.58759 2.37711 4.55082 2.34763 4.51234C2.01221 4.09427 1.67692 3.68356 1.34149 3.2655C1.95368 2.30965 2.77707 1.50896 3.74745 0.92589C7.10848 -1.05439 11.7454 0.317158 14.1732 3.37559C16.6083 6.43397 17.0676 10.7246 16.2219 14.5458C15.3903 17.7973 14.0145 20.8826 12.1536 23.6697C12.3359 23.9044 12.5255 24.1318 12.7077 24.3665C16.0396 28.6765 18.9436 33.3047 21.378 38.1846C20.786 32.7177 21.4927 27.1875 23.4397 22.0489C25.4131 17.2599 29.1118 13.2266 32.369 9.08652C36.2814 4.11368 44.3041 6.28393 44.9934 12.5878C45.0001 12.6488 45.0066 12.7098 45.013 12.7708C44.5292 13.0454 44.0556 13.3369 43.5922 13.6451C43.0101 14.0364 42.559 14.5954 42.2981 15.2489C42.0373 15.9024 41.9787 16.62 42.1302 17.3076C42.2816 17.9952 42.6359 18.6207 43.1468 19.1023C43.6576 19.5838 44.3012 19.8989 44.9931 20.0062L45.0639 20.0172C44.8916 21.7713 44.587 23.5097 44.1527 25.2173C42.8941 29.9844 40.6702 34.4386 37.6203 38.3006C34.5704 42.1626 30.7603 45.3491 26.4289 47.6604C26.1446 47.8071 25.8675 47.9538 25.5831 48.0932C28.029 55.066 29.5632 62.3293 30.1471 69.7002C30.4777 74.0488 30.4582 78.4172 30.0888 82.7627L30.1107 82.6087C31.0439 77.7766 33.6063 73.4166 37.365 70.2649C42.9475 65.6516 50.8347 63.9528 56.8573 60.2445C57.4974 59.8311 58.2415 59.6105 59.0022 59.6086C59.7628 59.6067 60.5081 59.8237 61.1501 60.234C61.7922 60.6443 62.3042 61.2307 62.6259 61.9241C62.9475 62.6175 63.0654 63.389 62.9655 64.1475C62.9574 64.2015 62.9491 64.2555 62.9408 64.3094C62.043 64.6773 61.1688 65.101 60.3234 65.5782C59.8396 65.8528 59.3661 66.1442 58.9027 66.4525C58.3206 66.8437 57.8696 67.4027 57.6087 68.0563C57.3478 68.7098 57.2892 69.4274 57.4406 70.115C57.592 70.8026 57.9464 71.4282 58.4573 71.9097C58.9682 72.3912 59.6117 72.7063 60.3036 72.8136L60.3745 72.8245C60.4255 72.8319 60.4692 72.8392 60.5202 72.8466C58.9862 76.5313 56.8332 79.9228 54.1555 82.8727C50.8475 86.4434 46.8495 89.2968 42.4065 91.258C37.9634 93.2191 33.169 94.2467 28.3172 94.2776H28.3098C26.9928 100.035 25.0845 105.639 22.6158 111H2.27467C2.20172 110.773 2.13616 110.538 2.07052 110.311C3.95334 110.43 5.84356 110.316 7.69901 109.973C6.18981 108.11 4.68067 106.233 3.17147 104.37C3.13781 104.335 3.10614 104.298 3.07666 104.26C2.31115 103.306 1.53834 102.36 0.772822 101.407L0.772389 101.405C0.731587 98.4828 1.06498 95.5671 1.76434 92.73L1.7649 92.7297Z" fill="#D6CEFF" fill-opacity="0.2"/>
</svg>
