<svg width="33" height="46" viewBox="0 0 33 46" fill="none" xmlns="http://www.w3.org/2000/svg">
<path d="M32.0755 38.4286C31.8007 38.4386 31.5286 38.3812 31.2962 38.264C31.0637 38.1469 30.8821 37.9758 30.776 37.7737C30.6698 37.5717 30.6443 37.3486 30.7028 37.1346C30.7613 36.9207 30.901 36.7262 31.1031 36.5776C31.1369 36.4705 31.1612 36.3937 31.195 36.2867C31.1829 36.2634 31.1707 36.2401 31.1585 36.2168C30.8816 35.6963 30.4176 35.2526 29.8249 34.9413C29.2322 34.63 28.5371 34.465 27.8269 34.4671C27.1167 34.4692 26.4232 34.6383 25.8334 34.9531C25.2435 35.2679 24.7838 35.7144 24.5118 36.2365C23.4247 38.3203 22.0406 40.4077 21.6998 42.611C21.5497 43.585 21.613 44.5722 21.8869 45.5289C19.3336 41.096 18.0077 36.278 17.9992 31.4015C17.9987 30.1778 18.0841 28.955 18.2551 27.7389C18.3964 26.742 18.5924 25.7521 18.8432 24.7693C20.2117 19.437 23.15 14.4391 27.4167 10.186C29.4818 9.28923 31.1519 7.91019 32.2018 6.23471C32.5822 5.63244 32.8511 4.9895 33 4.32592C32.7671 4.35024 32.5303 4.36544 32.2973 4.37758C32.2248 4.38061 32.1484 4.38366 32.0758 4.38671L32.0485 4.38769C31.7924 4.39683 31.5385 4.34687 31.3174 4.24384C31.0962 4.14081 30.9171 3.9891 30.8018 3.80696C30.6864 3.62482 30.6396 3.42003 30.6671 3.21723C30.6946 3.01443 30.7951 2.82228 30.9566 2.6639C31.0572 2.56538 31.1578 2.46692 31.2585 2.36851C31.4113 2.21652 31.5679 2.06758 31.7206 1.91562C31.7383 1.90119 31.7548 1.88595 31.7703 1.87C31.946 1.69675 32.1216 1.52655 32.2973 1.3533C31.9766 0.95718 31.5453 0.625362 31.0371 0.383728C29.2765 -0.436928 26.8476 0.13146 25.5759 1.39892C24.3004 2.66635 24.0598 4.44447 24.5028 6.02802C24.9384 7.37548 25.6591 8.65409 26.6338 9.8091C26.5383 9.90637 26.439 10.0006 26.3436 10.0979C24.5983 11.884 23.0772 13.802 21.802 15.8243C22.1121 13.5587 21.7419 11.2669 20.722 9.1374C19.6884 7.15278 17.751 5.48133 16.0448 3.76561C13.9955 1.70479 9.79307 2.60418 9.43202 5.21658C9.42853 5.24188 9.4251 5.26716 9.42178 5.29244C9.67519 5.40623 9.92327 5.52701 10.166 5.65476C10.4709 5.8169 10.7072 6.04856 10.8438 6.31939C10.9805 6.59023 11.0111 6.8876 10.9318 7.17255C10.8525 7.4575 10.6669 7.71673 10.3993 7.91628C10.1317 8.11584 9.79463 8.2464 9.4322 8.29087L9.39508 8.29544C9.48535 9.02236 9.64492 9.74277 9.87242 10.4504C10.5316 12.426 11.6966 14.2719 13.2941 15.8724C14.8917 17.4728 16.8874 18.7934 19.1563 19.7512C19.3052 19.812 19.4504 19.8728 19.5993 19.9305C18.3181 22.8202 17.5145 25.8302 17.2087 28.8848C17.0355 30.6869 17.0457 32.4973 17.2392 34.2981L17.2277 34.2342C16.7389 32.2318 15.3967 30.4249 13.4279 29.1188C10.5037 27.207 6.3723 26.503 3.2176 24.9662C2.88233 24.7949 2.49253 24.7035 2.0941 24.7027C1.69568 24.7019 1.30529 24.7918 0.968971 24.9619C0.632656 25.1319 0.364452 25.3749 0.195976 25.6623C0.027504 25.9496 -0.0342369 26.2693 0.0180969 26.5837C0.0223274 26.6061 0.0266418 26.6284 0.0310135 26.6508C0.501286 26.8032 0.95919 26.9788 1.40203 27.1766C1.65545 27.2904 1.90348 27.4111 2.14619 27.5389C2.4511 27.701 2.68737 27.9327 2.82403 28.2035C2.96069 28.4744 2.99139 28.7717 2.91207 29.0567C2.83275 29.3416 2.64711 29.6009 2.37951 29.8004C2.11191 30 1.77483 30.1306 1.41241 30.175L1.37528 30.1796C1.34854 30.1826 1.32563 30.1857 1.29894 30.1887C2.10246 31.7157 3.23023 33.1212 4.63285 34.3436C6.36557 35.8234 8.45976 37.0059 10.7871 37.8187C13.1144 38.6314 15.6258 39.0572 18.1672 39.07H18.1711C18.8609 41.456 19.8605 43.7785 21.1536 46H31.8085C31.8467 45.9058 31.8811 45.8085 31.9154 45.7143C30.9292 45.7636 29.9391 45.7167 28.9672 45.5745C29.7577 44.8024 30.5482 44.0243 31.3388 43.2523C31.3564 43.2379 31.373 43.2227 31.3884 43.2067C31.7894 42.8116 32.1942 42.4195 32.5952 42.0244L32.5954 42.0239C32.6168 40.8127 32.4422 39.6044 32.0758 38.4287L32.0755 38.4286Z" fill="#B6B3FF"/>
</svg>
