<svg width="842" height="595" viewBox="0 0 842 595" fill="none" xmlns="http://www.w3.org/2000/svg">
<g clip-path="url(#clip0_302_2671)">
<rect width="842" height="595" fill="white"/>
<path fill-rule="evenodd" clip-rule="evenodd" d="M-102.051 350.186C-83.8666 330.506 -65.5482 307.721 -37.7468 306.595C-9.95729 305.469 12.4994 327.688 35.7968 344.601C62.6782 364.116 100.721 378.713 105.424 410.534C110.157 442.559 77.8942 463.271 56.7001 486.036C36.7948 507.417 18.648 533.549 -11.4803 536.103C-42.4616 538.729 -72.0259 520.282 -96.3363 499.009C-120.31 478.03 -142.087 451.355 -143.261 420.788C-144.381 391.616 -121.236 370.949 -102.051 350.186Z" fill="#D6CEFF"/>
<path fill-rule="evenodd" clip-rule="evenodd" d="M988.33 87.2669C980.922 128.434 975.673 173.77 942.684 198.875C909.71 223.968 865.763 214.032 824.761 211.741C777.452 209.097 720.239 222.367 690.715 184.795C661.001 146.982 684.769 92.4996 693.532 44.744C701.762 -0.107597 704.298 -49.6716 739.051 -78.6185C774.787 -108.385 824.563 -109.417 870.058 -102.292C914.923 -95.2651 961.377 -78.9293 985.669 -39.9946C1008.85 -2.83877 996.146 43.8352 988.33 87.2669Z" fill="#D6CEFF"/>
<g clip-path="url(#clip1_302_2671)">
<circle cx="6" cy="7" r="2" fill="#B6B3FF"/>
<circle cx="16" cy="7" r="2" fill="#B6B3FF"/>
<circle cx="26" cy="7" r="2" fill="#B6B3FF"/>
<circle cx="36" cy="7" r="2" fill="#B6B3FF"/>
<circle cx="6" cy="17" r="2" fill="#B6B3FF"/>
<circle cx="16" cy="17" r="2" fill="#B6B3FF"/>
<circle cx="26" cy="17" r="2" fill="#B6B3FF"/>
<circle cx="36" cy="17" r="2" fill="#B6B3FF"/>
<circle cx="6" cy="27" r="2" fill="#B6B3FF"/>
<circle cx="16" cy="27" r="2" fill="#B6B3FF"/>
<circle cx="26" cy="27" r="2" fill="#B6B3FF"/>
<circle cx="36" cy="27" r="2" fill="#B6B3FF"/>
<circle cx="6" cy="37" r="2" fill="#B6B3FF"/>
<circle cx="16" cy="37" r="2" fill="#B6B3FF"/>
<circle cx="26" cy="37" r="2" fill="#B6B3FF"/>
<circle cx="36" cy="37" r="2" fill="#B6B3FF"/>
<circle cx="6" cy="47" r="2" fill="#B6B3FF"/>
<circle cx="16" cy="47" r="2" fill="#B6B3FF"/>
<circle cx="26" cy="47" r="2" fill="#B6B3FF"/>
<circle cx="36" cy="47" r="2" fill="#B6B3FF"/>
<circle cx="6" cy="57" r="2" fill="#B6B3FF"/>
<circle cx="16" cy="57" r="2" fill="#B6B3FF"/>
<circle cx="26" cy="57" r="2" fill="#B6B3FF"/>
<circle cx="36" cy="57" r="2" fill="#B6B3FF"/>
<circle cx="6" cy="67" r="2" fill="#B6B3FF"/>
<circle cx="16" cy="67" r="2" fill="#B6B3FF"/>
<circle cx="26" cy="67" r="2" fill="#B6B3FF"/>
<circle cx="36" cy="67" r="2" fill="#B6B3FF"/>
<circle cx="6" cy="77" r="2" fill="#B6B3FF"/>
<circle cx="16" cy="77" r="2" fill="#B6B3FF"/>
<circle cx="26" cy="77" r="2" fill="#B6B3FF"/>
<circle cx="36" cy="77" r="2" fill="#B6B3FF"/>
<circle cx="6" cy="87" r="2" fill="#B6B3FF"/>
<circle cx="16" cy="87" r="2" fill="#B6B3FF"/>
<circle cx="26" cy="87" r="2" fill="#B6B3FF"/>
<circle cx="36" cy="87" r="2" fill="#B6B3FF"/>
<circle cx="6" cy="97" r="2" fill="#B6B3FF"/>
<circle cx="16" cy="97" r="2" fill="#B6B3FF"/>
<circle cx="26" cy="97" r="2" fill="#B6B3FF"/>
<circle cx="36" cy="97" r="2" fill="#B6B3FF"/>
<circle cx="6" cy="107" r="2" fill="#B6B3FF"/>
<circle cx="16" cy="107" r="2" fill="#B6B3FF"/>
<circle cx="26" cy="107" r="2" fill="#B6B3FF"/>
<circle cx="36" cy="107" r="2" fill="#B6B3FF"/>
<circle cx="6" cy="117" r="2" fill="#B6B3FF"/>
<circle cx="16" cy="117" r="2" fill="#B6B3FF"/>
<circle cx="26" cy="117" r="2" fill="#B6B3FF"/>
<circle cx="36" cy="117" r="2" fill="#B6B3FF"/>
<circle cx="6" cy="127" r="2" fill="#B6B3FF"/>
<circle cx="16" cy="127" r="2" fill="#B6B3FF"/>
<circle cx="26" cy="127" r="2" fill="#B6B3FF"/>
<circle cx="36" cy="127" r="2" fill="#B6B3FF"/>
<circle cx="6" cy="137" r="2" fill="#B6B3FF"/>
<circle cx="16" cy="137" r="2" fill="#B6B3FF"/>
<circle cx="26" cy="137" r="2" fill="#B6B3FF"/>
<circle cx="36" cy="137" r="2" fill="#B6B3FF"/>
<circle cx="6" cy="147" r="2" fill="#B6B3FF"/>
<circle cx="16" cy="147" r="2" fill="#B6B3FF"/>
<circle cx="26" cy="147" r="2" fill="#B6B3FF"/>
<circle cx="36" cy="147" r="2" fill="#B6B3FF"/>
<circle cx="6" cy="157" r="2" fill="#B6B3FF"/>
<circle cx="16" cy="157" r="2" fill="#B6B3FF"/>
<circle cx="26" cy="157" r="2" fill="#B6B3FF"/>
<circle cx="36" cy="157" r="2" fill="#B6B3FF"/>
<circle cx="6" cy="167" r="2" fill="#B6B3FF"/>
<circle cx="16" cy="167" r="2" fill="#B6B3FF"/>
<circle cx="26" cy="167" r="2" fill="#B6B3FF"/>
<circle cx="36" cy="167" r="2" fill="#B6B3FF"/>
<circle cx="6" cy="177" r="2" fill="#B6B3FF"/>
<circle cx="16" cy="177" r="2" fill="#B6B3FF"/>
<circle cx="26" cy="177" r="2" fill="#B6B3FF"/>
<circle cx="36" cy="177" r="2" fill="#B6B3FF"/>
<circle cx="6" cy="187" r="2" fill="#B6B3FF"/>
<circle cx="16" cy="187" r="2" fill="#B6B3FF"/>
<circle cx="26" cy="187" r="2" fill="#B6B3FF"/>
<circle cx="36" cy="187" r="2" fill="#B6B3FF"/>
<circle cx="6" cy="197" r="2" fill="#B6B3FF"/>
<circle cx="16" cy="197" r="2" fill="#B6B3FF"/>
<circle cx="26" cy="197" r="2" fill="#B6B3FF"/>
<circle cx="36" cy="197" r="2" fill="#B6B3FF"/>
<circle cx="6" cy="207" r="2" fill="#B6B3FF"/>
<circle cx="16" cy="207" r="2" fill="#B6B3FF"/>
<circle cx="26" cy="207" r="2" fill="#B6B3FF"/>
<circle cx="36" cy="207" r="2" fill="#B6B3FF"/>
<circle cx="6" cy="217" r="2" fill="#B6B3FF"/>
<circle cx="16" cy="217" r="2" fill="#B6B3FF"/>
<circle cx="26" cy="217" r="2" fill="#B6B3FF"/>
<circle cx="36" cy="217" r="2" fill="#B6B3FF"/>
<circle cx="6" cy="227" r="2" fill="#B6B3FF"/>
<circle cx="16" cy="227" r="2" fill="#B6B3FF"/>
<circle cx="26" cy="227" r="2" fill="#B6B3FF"/>
<circle cx="36" cy="227" r="2" fill="#B6B3FF"/>
</g>
<g clip-path="url(#clip2_302_2671)">
<circle cx="7" cy="7" r="2" fill="#B6B3FF"/>
<circle cx="17" cy="7" r="2" fill="#B6B3FF"/>
<circle cx="27" cy="7" r="2" fill="#B6B3FF"/>
<circle cx="37" cy="7" r="2" fill="#B6B3FF"/>
<circle cx="47" cy="7" r="2" fill="#B6B3FF"/>
<circle cx="7" cy="17" r="2" fill="#B6B3FF"/>
<circle cx="17" cy="17" r="2" fill="#B6B3FF"/>
<circle cx="27" cy="17" r="2" fill="#B6B3FF"/>
<circle cx="37" cy="17" r="2" fill="#B6B3FF"/>
<circle cx="47" cy="17" r="2" fill="#B6B3FF"/>
<circle cx="7" cy="27" r="2" fill="#B6B3FF"/>
<circle cx="17" cy="27" r="2" fill="#B6B3FF"/>
<circle cx="27" cy="27" r="2" fill="#B6B3FF"/>
<circle cx="37" cy="27" r="2" fill="#B6B3FF"/>
<circle cx="47" cy="27" r="2" fill="#B6B3FF"/>
<circle cx="7" cy="37" r="2" fill="#B6B3FF"/>
<circle cx="17" cy="37" r="2" fill="#B6B3FF"/>
<circle cx="27" cy="37" r="2" fill="#B6B3FF"/>
<circle cx="37" cy="37" r="2" fill="#B6B3FF"/>
<circle cx="47" cy="37" r="2" fill="#B6B3FF"/>
<circle cx="7" cy="47" r="2" fill="#B6B3FF"/>
<circle cx="17" cy="47" r="2" fill="#B6B3FF"/>
<circle cx="27" cy="47" r="2" fill="#B6B3FF"/>
<circle cx="37" cy="47" r="2" fill="#B6B3FF"/>
<circle cx="47" cy="47" r="2" fill="#B6B3FF"/>
<circle cx="7" cy="57" r="2" fill="#B6B3FF"/>
<circle cx="17" cy="57" r="2" fill="#B6B3FF"/>
<circle cx="27" cy="57" r="2" fill="#B6B3FF"/>
<circle cx="37" cy="57" r="2" fill="#B6B3FF"/>
<circle cx="47" cy="57" r="2" fill="#B6B3FF"/>
<circle cx="7" cy="67" r="2" fill="#B6B3FF"/>
<circle cx="17" cy="67" r="2" fill="#B6B3FF"/>
<circle cx="27" cy="67" r="2" fill="#B6B3FF"/>
<circle cx="37" cy="67" r="2" fill="#B6B3FF"/>
<circle cx="47" cy="67" r="2" fill="#B6B3FF"/>
<circle cx="7" cy="77" r="2" fill="#B6B3FF"/>
<circle cx="17" cy="77" r="2" fill="#B6B3FF"/>
<circle cx="27" cy="77" r="2" fill="#B6B3FF"/>
<circle cx="37" cy="77" r="2" fill="#B6B3FF"/>
<circle cx="47" cy="77" r="2" fill="#B6B3FF"/>
<circle cx="7" cy="87" r="2" fill="#B6B3FF"/>
<circle cx="17" cy="87" r="2" fill="#B6B3FF"/>
<circle cx="27" cy="87" r="2" fill="#B6B3FF"/>
<circle cx="37" cy="87" r="2" fill="#B6B3FF"/>
<circle cx="47" cy="87" r="2" fill="#B6B3FF"/>
<circle cx="7" cy="97" r="2" fill="#B6B3FF"/>
<circle cx="17" cy="97" r="2" fill="#B6B3FF"/>
<circle cx="27" cy="97" r="2" fill="#B6B3FF"/>
<circle cx="37" cy="97" r="2" fill="#B6B3FF"/>
<circle cx="47" cy="97" r="2" fill="#B6B3FF"/>
<circle cx="7" cy="107" r="2" fill="#B6B3FF"/>
<circle cx="17" cy="107" r="2" fill="#B6B3FF"/>
<circle cx="27" cy="107" r="2" fill="#B6B3FF"/>
<circle cx="37" cy="107" r="2" fill="#B6B3FF"/>
<circle cx="47" cy="107" r="2" fill="#B6B3FF"/>
<circle cx="7" cy="117" r="2" fill="#B6B3FF"/>
<circle cx="17" cy="117" r="2" fill="#B6B3FF"/>
<circle cx="27" cy="117" r="2" fill="#B6B3FF"/>
<circle cx="37" cy="117" r="2" fill="#B6B3FF"/>
<circle cx="47" cy="117" r="2" fill="#B6B3FF"/>
<circle cx="7" cy="127" r="2" fill="#B6B3FF"/>
<circle cx="17" cy="127" r="2" fill="#B6B3FF"/>
<circle cx="27" cy="127" r="2" fill="#B6B3FF"/>
<circle cx="37" cy="127" r="2" fill="#B6B3FF"/>
<circle cx="47" cy="127" r="2" fill="#B6B3FF"/>
<circle cx="7" cy="137" r="2" fill="#B6B3FF"/>
<circle cx="17" cy="137" r="2" fill="#B6B3FF"/>
<circle cx="27" cy="137" r="2" fill="#B6B3FF"/>
<circle cx="37" cy="137" r="2" fill="#B6B3FF"/>
<circle cx="47" cy="137" r="2" fill="#B6B3FF"/>
<circle cx="7" cy="147" r="2" fill="#B6B3FF"/>
<circle cx="17" cy="147" r="2" fill="#B6B3FF"/>
<circle cx="27" cy="147" r="2" fill="#B6B3FF"/>
<circle cx="37" cy="147" r="2" fill="#B6B3FF"/>
<circle cx="47" cy="147" r="2" fill="#B6B3FF"/>
<circle cx="7" cy="157" r="2" fill="#B6B3FF"/>
<circle cx="17" cy="157" r="2" fill="#B6B3FF"/>
<circle cx="27" cy="157" r="2" fill="#B6B3FF"/>
<circle cx="37" cy="157" r="2" fill="#B6B3FF"/>
<circle cx="47" cy="157" r="2" fill="#B6B3FF"/>
<circle cx="7" cy="167" r="2" fill="#B6B3FF"/>
<circle cx="17" cy="167" r="2" fill="#B6B3FF"/>
<circle cx="27" cy="167" r="2" fill="#B6B3FF"/>
<circle cx="37" cy="167" r="2" fill="#B6B3FF"/>
<circle cx="47" cy="167" r="2" fill="#B6B3FF"/>
<circle cx="7" cy="177" r="2" fill="#B6B3FF"/>
<circle cx="17" cy="177" r="2" fill="#B6B3FF"/>
<circle cx="27" cy="177" r="2" fill="#B6B3FF"/>
<circle cx="37" cy="177" r="2" fill="#B6B3FF"/>
<circle cx="47" cy="177" r="2" fill="#B6B3FF"/>
<circle cx="7" cy="187" r="2" fill="#B6B3FF"/>
<circle cx="17" cy="187" r="2" fill="#B6B3FF"/>
<circle cx="27" cy="187" r="2" fill="#B6B3FF"/>
<circle cx="37" cy="187" r="2" fill="#B6B3FF"/>
<circle cx="47" cy="187" r="2" fill="#B6B3FF"/>
<circle cx="7" cy="197" r="2" fill="#B6B3FF"/>
<circle cx="17" cy="197" r="2" fill="#B6B3FF"/>
<circle cx="27" cy="197" r="2" fill="#B6B3FF"/>
<circle cx="37" cy="197" r="2" fill="#B6B3FF"/>
<circle cx="47" cy="197" r="2" fill="#B6B3FF"/>
<circle cx="7" cy="207" r="2" fill="#B6B3FF"/>
<circle cx="17" cy="207" r="2" fill="#B6B3FF"/>
<circle cx="27" cy="207" r="2" fill="#B6B3FF"/>
<circle cx="37" cy="207" r="2" fill="#B6B3FF"/>
<circle cx="47" cy="207" r="2" fill="#B6B3FF"/>
<circle cx="7" cy="217" r="2" fill="#B6B3FF"/>
<circle cx="17" cy="217" r="2" fill="#B6B3FF"/>
<circle cx="27" cy="217" r="2" fill="#B6B3FF"/>
<circle cx="37" cy="217" r="2" fill="#B6B3FF"/>
<circle cx="47" cy="217" r="2" fill="#B6B3FF"/>
<circle cx="7" cy="227" r="2" fill="#B6B3FF"/>
<circle cx="17" cy="227" r="2" fill="#B6B3FF"/>
<circle cx="27" cy="227" r="2" fill="#B6B3FF"/>
<circle cx="37" cy="227" r="2" fill="#B6B3FF"/>
<circle cx="47" cy="227" r="2" fill="#B6B3FF"/>
</g>
<g clip-path="url(#clip3_302_2671)">
<circle cx="807" cy="197" r="2" fill="#B6B3FF"/>
<circle cx="817" cy="197" r="2" fill="#B6B3FF"/>
<circle cx="827" cy="197" r="2" fill="#B6B3FF"/>
<circle cx="837" cy="197" r="2" fill="#B6B3FF"/>
<circle cx="807" cy="207" r="2" fill="#B6B3FF"/>
<circle cx="817" cy="207" r="2" fill="#B6B3FF"/>
<circle cx="827" cy="207" r="2" fill="#B6B3FF"/>
<circle cx="837" cy="207" r="2" fill="#B6B3FF"/>
<circle cx="807" cy="217" r="2" fill="#B6B3FF"/>
<circle cx="817" cy="217" r="2" fill="#B6B3FF"/>
<circle cx="827" cy="217" r="2" fill="#B6B3FF"/>
<circle cx="837" cy="217" r="2" fill="#B6B3FF"/>
<circle cx="807" cy="227" r="2" fill="#B6B3FF"/>
<circle cx="817" cy="227" r="2" fill="#B6B3FF"/>
<circle cx="827" cy="227" r="2" fill="#B6B3FF"/>
<circle cx="837" cy="227" r="2" fill="#B6B3FF"/>
<circle cx="807" cy="237" r="2" fill="#B6B3FF"/>
<circle cx="817" cy="237" r="2" fill="#B6B3FF"/>
<circle cx="827" cy="237" r="2" fill="#B6B3FF"/>
<circle cx="837" cy="237" r="2" fill="#B6B3FF"/>
<circle cx="807" cy="247" r="2" fill="#B6B3FF"/>
<circle cx="817" cy="247" r="2" fill="#B6B3FF"/>
<circle cx="827" cy="247" r="2" fill="#B6B3FF"/>
<circle cx="837" cy="247" r="2" fill="#B6B3FF"/>
<circle cx="807" cy="257" r="2" fill="#B6B3FF"/>
<circle cx="817" cy="257" r="2" fill="#B6B3FF"/>
<circle cx="827" cy="257" r="2" fill="#B6B3FF"/>
<circle cx="837" cy="257" r="2" fill="#B6B3FF"/>
<circle cx="807" cy="267" r="2" fill="#B6B3FF"/>
<circle cx="817" cy="267" r="2" fill="#B6B3FF"/>
<circle cx="827" cy="267" r="2" fill="#B6B3FF"/>
<circle cx="837" cy="267" r="2" fill="#B6B3FF"/>
<circle cx="807" cy="277" r="2" fill="#B6B3FF"/>
<circle cx="817" cy="277" r="2" fill="#B6B3FF"/>
<circle cx="827" cy="277" r="2" fill="#B6B3FF"/>
<circle cx="837" cy="277" r="2" fill="#B6B3FF"/>
<circle cx="807" cy="287" r="2" fill="#B6B3FF"/>
<circle cx="817" cy="287" r="2" fill="#B6B3FF"/>
<circle cx="827" cy="287" r="2" fill="#B6B3FF"/>
<circle cx="837" cy="287" r="2" fill="#B6B3FF"/>
<circle cx="807" cy="297" r="2" fill="#B6B3FF"/>
<circle cx="817" cy="297" r="2" fill="#B6B3FF"/>
<circle cx="827" cy="297" r="2" fill="#B6B3FF"/>
<circle cx="837" cy="297" r="2" fill="#B6B3FF"/>
<circle cx="807" cy="307" r="2" fill="#B6B3FF"/>
<circle cx="817" cy="307" r="2" fill="#B6B3FF"/>
<circle cx="827" cy="307" r="2" fill="#B6B3FF"/>
<circle cx="837" cy="307" r="2" fill="#B6B3FF"/>
<circle cx="807" cy="317" r="2" fill="#B6B3FF"/>
<circle cx="817" cy="317" r="2" fill="#B6B3FF"/>
<circle cx="827" cy="317" r="2" fill="#B6B3FF"/>
<circle cx="837" cy="317" r="2" fill="#B6B3FF"/>
<circle cx="807" cy="327" r="2" fill="#B6B3FF"/>
<circle cx="817" cy="327" r="2" fill="#B6B3FF"/>
<circle cx="827" cy="327" r="2" fill="#B6B3FF"/>
<circle cx="837" cy="327" r="2" fill="#B6B3FF"/>
<circle cx="807" cy="337" r="2" fill="#B6B3FF"/>
<circle cx="817" cy="337" r="2" fill="#B6B3FF"/>
<circle cx="827" cy="337" r="2" fill="#B6B3FF"/>
<circle cx="837" cy="337" r="2" fill="#B6B3FF"/>
<circle cx="807" cy="347" r="2" fill="#B6B3FF"/>
<circle cx="817" cy="347" r="2" fill="#B6B3FF"/>
<circle cx="827" cy="347" r="2" fill="#B6B3FF"/>
<circle cx="837" cy="347" r="2" fill="#B6B3FF"/>
<circle cx="807" cy="357" r="2" fill="#B6B3FF"/>
<circle cx="817" cy="357" r="2" fill="#B6B3FF"/>
<circle cx="827" cy="357" r="2" fill="#B6B3FF"/>
<circle cx="837" cy="357" r="2" fill="#B6B3FF"/>
<circle cx="807" cy="367" r="2" fill="#B6B3FF"/>
<circle cx="817" cy="367" r="2" fill="#B6B3FF"/>
<circle cx="827" cy="367" r="2" fill="#B6B3FF"/>
<circle cx="837" cy="367" r="2" fill="#B6B3FF"/>
<circle cx="807" cy="377" r="2" fill="#B6B3FF"/>
<circle cx="817" cy="377" r="2" fill="#B6B3FF"/>
<circle cx="827" cy="377" r="2" fill="#B6B3FF"/>
<circle cx="837" cy="377" r="2" fill="#B6B3FF"/>
<circle cx="807" cy="387" r="2" fill="#B6B3FF"/>
<circle cx="817" cy="387" r="2" fill="#B6B3FF"/>
<circle cx="827" cy="387" r="2" fill="#B6B3FF"/>
<circle cx="837" cy="387" r="2" fill="#B6B3FF"/>
<circle cx="807" cy="397" r="2" fill="#B6B3FF"/>
<circle cx="817" cy="397" r="2" fill="#B6B3FF"/>
<circle cx="827" cy="397" r="2" fill="#B6B3FF"/>
<circle cx="837" cy="397" r="2" fill="#B6B3FF"/>
<circle cx="807" cy="407" r="2" fill="#B6B3FF"/>
<circle cx="817" cy="407" r="2" fill="#B6B3FF"/>
<circle cx="827" cy="407" r="2" fill="#B6B3FF"/>
<circle cx="837" cy="407" r="2" fill="#B6B3FF"/>
<circle cx="807" cy="417" r="2" fill="#B6B3FF"/>
<circle cx="817" cy="417" r="2" fill="#B6B3FF"/>
<circle cx="827" cy="417" r="2" fill="#B6B3FF"/>
<circle cx="837" cy="417" r="2" fill="#B6B3FF"/>
<circle cx="807" cy="427" r="2" fill="#B6B3FF"/>
<circle cx="817" cy="427" r="2" fill="#B6B3FF"/>
<circle cx="827" cy="427" r="2" fill="#B6B3FF"/>
<circle cx="837" cy="427" r="2" fill="#B6B3FF"/>
</g>
<rect y="581" width="842" height="14" fill="#B6B3FF"/>
<rect y="575" width="842" height="14" fill="url(#paint0_linear_302_2671)" fill-opacity="0.1"/>
<path d="M93.008 91.64C87.76 91.64 83.28 90.7013 79.568 88.824C75.856 86.9467 73.0187 84.216 71.056 80.632C69.136 77.048 68.176 72.7173 68.176 67.64C68.176 62.52 69.136 58.1893 71.056 54.648C73.0187 51.064 75.856 48.3333 79.568 46.456C83.28 44.5787 87.76 43.64 93.008 43.64C98.9387 43.64 104.187 44.856 108.752 47.288L106.32 56.632C101.883 54.2427 97.5733 53.048 93.392 53.048C90.4907 53.048 87.9947 53.624 85.904 54.776C83.856 55.928 82.2773 57.592 81.168 59.768C80.0587 61.9013 79.504 64.5253 79.504 67.64C79.504 70.712 80.0587 73.336 81.168 75.512C82.2773 77.688 83.856 79.352 85.904 80.504C87.9947 81.656 90.4907 82.232 93.392 82.232C97.5307 82.232 101.84 81.0373 106.32 78.648L108.752 87.992C104.187 90.424 98.9387 91.64 93.008 91.64ZM137.147 91.64C130.96 91.64 126.203 90.1467 122.875 87.16C119.589 84.1733 117.947 79.9067 117.947 74.36C117.947 68.984 119.44 64.76 122.427 61.688C125.456 58.616 129.595 57.08 134.843 57.08C139.963 57.08 143.931 58.552 146.747 61.496C149.605 64.3973 151.035 68.472 151.035 73.72C151.035 74.4453 151.013 75.2347 150.971 76.088C150.928 76.9413 150.864 77.5387 150.779 77.88H123.899V71.16H142.459L141.115 73.208C141.115 70.136 140.603 67.896 139.579 66.488C138.555 65.0373 136.976 64.312 134.843 64.312C132.709 64.312 131.088 65.0587 129.979 66.552C128.912 68.0027 128.379 70.2427 128.379 73.272V76.472C128.379 78.9893 129.04 80.8453 130.363 82.04C131.728 83.192 133.861 83.768 136.763 83.768C138.555 83.768 140.496 83.5973 142.587 83.256C144.72 82.872 146.533 82.424 148.027 81.912L149.179 89.72C147.643 90.3173 145.787 90.7867 143.611 91.128C141.477 91.4693 139.323 91.64 137.147 91.64ZM163.268 91V57.72H173.508L173.572 63.672H173.7C174.937 62.264 176.303 61.0693 177.796 60.088C179.289 59.064 180.889 58.3173 182.596 57.848C184.345 57.336 186.137 57.08 187.972 57.08V65.912C185.412 65.912 183.065 66.3813 180.932 67.32C178.841 68.2587 177.156 69.5173 175.876 71.096C174.639 72.632 174.02 74.36 174.02 76.28V91H163.268ZM215.971 91.64C211.747 91.64 208.697 90.808 206.819 89.144C204.942 87.48 204.003 84.7493 204.003 80.952V65.592H197.347V57.72H204.003V46.84H214.819V57.72H224.867V65.592H214.819V78.648C214.819 80.3973 215.054 81.592 215.523 82.232C216.035 82.872 216.974 83.192 218.339 83.192C219.15 83.192 220.067 83.1067 221.091 82.936C222.115 82.7653 223.033 82.5307 223.843 82.232L224.739 90.424C223.118 90.8507 221.603 91.1493 220.195 91.32C218.83 91.5333 217.422 91.64 215.971 91.64ZM238.515 53.432V44.28H249.395V53.432H238.515ZM238.515 91V58.552H249.395V91H238.515ZM268.895 91V66.872H261.215V59H268.895V55.032C268.895 50.68 270.004 47.3733 272.223 45.112C274.484 42.8507 277.769 41.72 282.079 41.72C283.231 41.72 284.447 41.8053 285.727 41.976C287.049 42.104 288.265 42.3387 289.375 42.68L288.287 50.808C286.751 50.3387 285.3 50.104 283.935 50.104C282.356 50.104 281.247 50.4667 280.607 51.192C280.009 51.9173 279.711 53.2613 279.711 55.224V59H289.119V66.872H279.711V91H268.895ZM294.943 53.432V44.28H305.823V53.432H294.943ZM294.943 91V58.552H305.823V91H294.943ZM337.517 91.64C333.506 91.64 330.072 90.9787 327.213 89.656C324.397 88.2907 322.242 86.328 320.749 83.768C319.256 81.1653 318.509 78.0293 318.509 74.36C318.509 70.6907 319.256 67.576 320.749 65.016C322.242 62.4133 324.397 60.4507 327.213 59.128C330.072 57.7627 333.506 57.08 337.517 57.08C339.608 57.08 341.528 57.272 343.277 57.656C345.026 58.04 346.733 58.68 348.397 59.576L346.669 67.384C345.176 66.5733 343.746 65.976 342.381 65.592C341.058 65.1653 339.693 64.952 338.285 64.952C335.426 64.952 333.229 65.7627 331.693 67.384C330.157 69.0053 329.389 71.3307 329.389 74.36C329.389 77.3893 330.157 79.7147 331.693 81.336C333.229 82.9573 335.426 83.768 338.285 83.768C339.693 83.768 341.058 83.576 342.381 83.192C343.746 82.7653 345.176 82.1467 346.669 81.336L348.397 89.144C346.733 89.9973 345.026 90.616 343.277 91C341.528 91.4267 339.608 91.64 337.517 91.64ZM369.894 91.64C366.694 91.64 364.156 90.7227 362.278 88.888C360.401 87.0533 359.462 84.5787 359.462 81.464C359.462 77.7093 360.934 74.808 363.878 72.76C366.865 70.712 371.068 69.688 376.486 69.688H380.39C380.39 68.408 380.241 67.4267 379.942 66.744C379.686 66.0613 379.196 65.592 378.47 65.336C377.745 65.08 376.721 64.952 375.398 64.952C373.308 64.952 371.046 65.1653 368.614 65.592C366.225 66.0187 364.006 66.616 361.958 67.384L360.806 59.512C363.025 58.744 365.542 58.1467 368.358 57.72C371.217 57.2933 374.054 57.08 376.87 57.08C380.369 57.08 383.142 57.5067 385.19 58.36C387.238 59.1707 388.71 60.5147 389.606 62.392C390.545 64.2693 391.014 66.7867 391.014 69.944V91H380.902L380.774 87.16H380.646C379.452 88.5253 377.873 89.6133 375.91 90.424C373.99 91.2347 371.985 91.64 369.894 91.64ZM373.926 84.024C375.164 84.024 376.273 83.8107 377.254 83.384C378.236 82.9573 379.004 82.3813 379.558 81.656C380.113 80.888 380.39 80.0347 380.39 79.096V75.96H378.086C375.1 75.96 372.881 76.3227 371.43 77.048C369.98 77.7307 369.254 78.84 369.254 80.376C369.254 81.528 369.66 82.424 370.47 83.064C371.281 83.704 372.433 84.024 373.926 84.024ZM419.597 91.64C415.373 91.64 412.322 90.808 410.445 89.144C408.567 87.48 407.629 84.7493 407.629 80.952V65.592H400.973V57.72H407.629V46.84H418.445V57.72H428.493V65.592H418.445V78.648C418.445 80.3973 418.679 81.592 419.149 82.232C419.661 82.872 420.599 83.192 421.965 83.192C422.775 83.192 423.693 83.1067 424.717 82.936C425.741 82.7653 426.658 82.5307 427.469 82.232L428.365 90.424C426.743 90.8507 425.229 91.1493 423.821 91.32C422.455 91.5333 421.047 91.64 419.597 91.64ZM458.284 91.64C452.097 91.64 447.34 90.1467 444.012 87.16C440.727 84.1733 439.084 79.9067 439.084 74.36C439.084 68.984 440.577 64.76 443.564 61.688C446.593 58.616 450.732 57.08 455.98 57.08C461.1 57.08 465.068 58.552 467.884 61.496C470.743 64.3973 472.172 68.472 472.172 73.72C472.172 74.4453 472.151 75.2347 472.108 76.088C472.065 76.9413 472.001 77.5387 471.916 77.88H445.036V71.16H463.596L462.252 73.208C462.252 70.136 461.74 67.896 460.716 66.488C459.692 65.0373 458.113 64.312 455.98 64.312C453.847 64.312 452.225 65.0587 451.116 66.552C450.049 68.0027 449.516 70.2427 449.516 73.272V76.472C449.516 78.9893 450.177 80.8453 451.5 82.04C452.865 83.192 454.999 83.768 457.9 83.768C459.692 83.768 461.633 83.5973 463.724 83.256C465.857 82.872 467.671 82.424 469.164 81.912L470.316 89.72C468.78 90.3173 466.924 90.7867 464.748 91.128C462.615 91.4693 460.46 91.64 458.284 91.64Z" fill="#474554"/>
<path d="M75.568 126.32C72.9227 126.32 70.8747 125.573 69.424 124.08C67.9733 122.565 67.248 120.432 67.248 117.68C67.248 114.928 67.9733 112.805 69.424 111.312C70.8747 109.797 72.9227 109.04 75.568 109.04C78.2133 109.04 80.2613 109.797 81.712 111.312C83.1627 112.805 83.888 114.928 83.888 117.68C83.888 120.432 83.1627 122.565 81.712 124.08C80.2613 125.573 78.2133 126.32 75.568 126.32ZM75.568 123.44C77.1467 123.44 78.352 122.949 79.184 121.968C80.016 120.987 80.432 119.557 80.432 117.68C80.432 115.803 80.016 114.373 79.184 113.392C78.352 112.411 77.1467 111.92 75.568 111.92C74.0107 111.92 72.8053 112.411 71.952 113.392C71.12 114.373 70.704 115.803 70.704 117.68C70.704 119.557 71.12 120.987 71.952 121.968C72.8053 122.949 74.0107 123.44 75.568 123.44ZM92.8208 126V112.88H88.4048V110H92.8208V107.28C92.8208 105.317 93.3008 103.845 94.2608 102.864C95.2421 101.861 96.6928 101.36 98.6128 101.36C99.2101 101.36 99.7861 101.403 100.341 101.488C100.895 101.573 101.397 101.691 101.845 101.84L101.429 104.72C100.661 104.464 99.9034 104.336 99.1568 104.336C98.1114 104.336 97.3754 104.581 96.9488 105.072C96.5221 105.541 96.3088 106.363 96.3088 107.536V110H101.749V112.88H96.3088V126H92.8208ZM131.48 126.32C128.962 126.32 126.786 125.84 124.952 124.88C123.138 123.92 121.741 122.544 120.76 120.752C119.8 118.96 119.32 116.816 119.32 114.32C119.32 111.824 119.8 109.68 120.76 107.888C121.741 106.096 123.138 104.72 124.952 103.76C126.786 102.8 128.962 102.32 131.48 102.32C134.36 102.32 136.92 102.96 139.16 104.24L138.296 107.376C136.141 106.139 133.912 105.52 131.608 105.52C129.837 105.52 128.301 105.872 127 106.576C125.698 107.28 124.696 108.293 123.992 109.616C123.309 110.917 122.968 112.485 122.968 114.32C122.968 116.133 123.309 117.701 123.992 119.024C124.696 120.347 125.698 121.36 127 122.064C128.301 122.768 129.837 123.12 131.608 123.12C133.848 123.12 136.077 122.501 138.296 121.264L139.16 124.4C136.92 125.68 134.36 126.32 131.48 126.32ZM152.774 126.32C150.129 126.32 148.081 125.573 146.63 124.08C145.18 122.565 144.454 120.432 144.454 117.68C144.454 114.928 145.18 112.805 146.63 111.312C148.081 109.797 150.129 109.04 152.774 109.04C155.42 109.04 157.468 109.797 158.918 111.312C160.369 112.805 161.094 114.928 161.094 117.68C161.094 120.432 160.369 122.565 158.918 124.08C157.468 125.573 155.42 126.32 152.774 126.32ZM152.774 123.44C154.353 123.44 155.558 122.949 156.39 121.968C157.222 120.987 157.638 119.557 157.638 117.68C157.638 115.803 157.222 114.373 156.39 113.392C155.558 112.411 154.353 111.92 152.774 111.92C151.217 111.92 150.012 112.411 149.158 113.392C148.326 114.373 147.91 115.803 147.91 117.68C147.91 119.557 148.326 120.987 149.158 121.968C150.012 122.949 151.217 123.44 152.774 123.44ZM167.995 126V109.36H171.227L171.259 111.344H171.323C171.921 110.619 172.646 110.053 173.499 109.648C174.353 109.243 175.345 109.04 176.475 109.04C177.585 109.04 178.523 109.243 179.291 109.648C180.059 110.032 180.603 110.597 180.923 111.344H180.987C181.606 110.555 182.331 109.979 183.163 109.616C184.017 109.232 185.009 109.04 186.139 109.04C187.953 109.04 189.275 109.52 190.107 110.48C190.939 111.419 191.355 112.912 191.355 114.96V126H187.963V115.76C187.963 114.437 187.739 113.467 187.291 112.848C186.843 112.229 186.129 111.92 185.147 111.92C183.995 111.92 183.078 112.304 182.395 113.072C181.713 113.819 181.371 114.821 181.371 116.08V126H177.979V115.44C177.979 114.309 177.734 113.445 177.243 112.848C176.753 112.229 176.059 111.92 175.163 111.92C174.459 111.92 173.819 112.101 173.243 112.464C172.667 112.827 172.209 113.328 171.867 113.968C171.547 114.587 171.387 115.291 171.387 116.08V126H167.995ZM207.904 109.04C210.122 109.04 211.861 109.808 213.12 111.344C214.378 112.859 215.008 114.971 215.008 117.68C215.008 120.389 214.378 122.512 213.12 124.048C211.861 125.563 210.122 126.32 207.904 126.32C206.794 126.32 205.77 126.117 204.832 125.712C203.893 125.307 203.125 124.741 202.528 124.016H202.464V132.72H199.008V109.36H202.304L202.336 111.344H202.4C203.018 110.597 203.808 110.032 204.768 109.648C205.728 109.243 206.773 109.04 207.904 109.04ZM207.104 111.92C206.229 111.92 205.44 112.101 204.736 112.464C204.032 112.827 203.477 113.328 203.072 113.968C202.666 114.587 202.464 115.301 202.464 116.112V119.248C202.464 120.037 202.666 120.752 203.072 121.392C203.477 122.032 204.032 122.533 204.736 122.896C205.44 123.259 206.229 123.44 207.104 123.44C208.554 123.44 209.664 122.939 210.432 121.936C211.221 120.933 211.616 119.515 211.616 117.68C211.616 115.845 211.221 114.427 210.432 113.424C209.664 112.421 208.554 111.92 207.104 111.92ZM222.182 126V102.64H225.702V126H222.182ZM241.871 126.32C238.991 126.32 236.773 125.573 235.215 124.08C233.658 122.587 232.879 120.453 232.879 117.68C232.879 114.992 233.594 112.88 235.023 111.344C236.474 109.808 238.458 109.04 240.975 109.04C243.407 109.04 245.274 109.765 246.575 111.216C247.898 112.667 248.559 114.725 248.559 117.392C248.559 117.669 248.549 117.979 248.527 118.32C248.527 118.661 248.517 118.928 248.495 119.12H234.799V116.4H245.871L245.327 117.232C245.327 115.419 244.965 114.075 244.239 113.2C243.514 112.304 242.426 111.856 240.975 111.856C239.439 111.856 238.266 112.325 237.455 113.264C236.666 114.203 236.271 115.568 236.271 117.36V118.32C236.271 120.048 236.719 121.339 237.615 122.192C238.533 123.024 239.909 123.44 241.743 123.44C242.639 123.44 243.589 123.355 244.591 123.184C245.615 122.992 246.522 122.747 247.311 122.448L247.759 125.232C246.949 125.573 246.021 125.84 244.975 126.032C243.951 126.224 242.917 126.32 241.871 126.32ZM262.124 126.32C260.204 126.32 258.817 125.925 257.964 125.136C257.132 124.325 256.716 123.013 256.716 121.2V112.24H252.876V109.36H256.716V103.92H260.204V109.36H265.996V112.24H260.204V120.24C260.204 121.371 260.396 122.16 260.78 122.608C261.164 123.056 261.847 123.28 262.828 123.28C263.319 123.28 263.809 123.237 264.3 123.152C264.812 123.067 265.271 122.949 265.676 122.8L265.996 125.744C265.313 125.957 264.652 126.107 264.012 126.192C263.393 126.277 262.764 126.32 262.124 126.32ZM273.501 106.16V102.64H277.021V106.16H273.501ZM273.501 126V109.36H277.021V126H273.501ZM292.518 126.32C289.873 126.32 287.825 125.573 286.374 124.08C284.923 122.565 284.198 120.432 284.198 117.68C284.198 114.928 284.923 112.805 286.374 111.312C287.825 109.797 289.873 109.04 292.518 109.04C295.163 109.04 297.211 109.797 298.662 111.312C300.113 112.805 300.838 114.928 300.838 117.68C300.838 120.432 300.113 122.565 298.662 124.08C297.211 125.573 295.163 126.32 292.518 126.32ZM292.518 123.44C294.097 123.44 295.302 122.949 296.134 121.968C296.966 120.987 297.382 119.557 297.382 117.68C297.382 115.803 296.966 114.373 296.134 113.392C295.302 112.411 294.097 111.92 292.518 111.92C290.961 111.92 289.755 112.411 288.902 113.392C288.07 114.373 287.654 115.803 287.654 117.68C287.654 119.557 288.07 120.987 288.902 121.968C289.755 122.949 290.961 123.44 292.518 123.44ZM307.739 126V109.36H311.035L311.067 111.344H311.131C311.792 110.576 312.592 110 313.531 109.616C314.47 109.232 315.558 109.04 316.795 109.04C318.843 109.04 320.347 109.584 321.307 110.672C322.288 111.76 322.779 113.456 322.779 115.76V126H319.323V116.4C319.323 114.864 319.035 113.733 318.459 113.008C317.904 112.283 317.03 111.92 315.835 111.92C314.939 111.92 314.139 112.101 313.435 112.464C312.731 112.827 312.176 113.317 311.771 113.936C311.387 114.555 311.195 115.269 311.195 116.08V126H307.739Z" fill="#474554"/>
<rect x="334" y="117" width="136" height="3" fill="#474554"/>
<rect x="715.06" y="445" width="200" height="2" rx="1" transform="rotate(31.9929 715.06 445)" fill="#B6B3FF" fill-opacity="0.45"/>
<rect x="781.06" y="449" width="200" height="2" rx="1" transform="rotate(31.9929 781.06 449)" fill="#B6B3FF" fill-opacity="0.45"/>
<rect x="781.06" y="520" width="200" height="2" rx="1" transform="rotate(31.9929 781.06 520)" fill="#B6B3FF" fill-opacity="0.45"/>
</g>
<defs>
<linearGradient id="paint0_linear_302_2671" x1="421" y1="575" x2="421" y2="589" gradientUnits="userSpaceOnUse">
<stop stop-color="#B6B3FF" stop-opacity="0.2"/>
<stop offset="1" stop-color="#B6B3FF"/>
</linearGradient>
<clipPath id="clip0_302_2671">
<rect width="842" height="595" fill="white"/>
</clipPath>
<clipPath id="clip1_302_2671">
<rect width="200" height="240" fill="white" transform="translate(-156 -5)"/>
</clipPath>
<clipPath id="clip2_302_2671">
<rect width="200" height="240" fill="white" transform="translate(-145 -5)"/>
</clipPath>
<clipPath id="clip3_302_2671">
<rect width="200" height="240" fill="white" transform="translate(805 195)"/>
</clipPath>
</defs>
</svg>
